<?xml version="1.0" encoding="UTF-8" standalone="no"?>
<svg
   xmlns:dc="http://purl.org/dc/elements/1.1/"
   xmlns:cc="http://creativecommons.org/ns#"
   xmlns:rdf="http://www.w3.org/1999/02/22-rdf-syntax-ns#"
   xmlns:svg="http://www.w3.org/2000/svg"
   xmlns="http://www.w3.org/2000/svg"
   xmlns:sodipodi="http://sodipodi.sourceforge.net/DTD/sodipodi-0.dtd"
   xmlns:inkscape="http://www.inkscape.org/namespaces/inkscape"
   fill="#000000"
   height="24"
   viewBox="0 0 24 24"
   width="24"
   id="svg2"
   version="1.1"
   inkscape:version="0.91 r13725"
   sodipodi:docname="ic_star_border_black_24px.svg">
  <metadata
     id="metadata12">
    <rdf:RDF>
      <cc:Work
         rdf:about="">
        <dc:format>image/svg+xml</dc:format>
        <dc:type
           rdf:resource="http://purl.org/dc/dcmitype/StillImage" />
      </cc:Work>
    </rdf:RDF>
  </metadata>
  <defs
     id="defs10" />
  <sodipodi:namedview
     pagecolor="#ffffff"
     bordercolor="#666666"
     borderopacity="1"
     objecttolerance="10"
     gridtolerance="10"
     guidetolerance="10"
     inkscape:pageopacity="0"
     inkscape:pageshadow="2"
     inkscape:window-width="1112"
     inkscape:window-height="795"
     id="namedview8"
     showgrid="false"
     inkscape:zoom="9.8333333"
     inkscape:cx="11.189188"
     inkscape:cy="-8.5810514"
     inkscape:window-x="0"
     inkscape:window-y="0"
     inkscape:window-maximized="0"
     inkscape:current-layer="svg2" />
  <path
     d="m 21.898305,-0.01423729 -7.19,-0.62 -2.81,-6.62000001 -2.8099999,6.63000001 -7.19,0.61 5.46,4.72999999 -1.64,7.0300003 6.1799999,-3.7300003 6.18,3.7300003 -1.63,-7.0300003 5.45,-4.72999999 z m -10,6.15999999 -3.7599999,2.27 1,-4.28 -3.32,-2.88 4.3799999,-0.37999999 1.7,-4.03000001 1.71,4.04000001 4.38,0.37999999 -3.32,2.88 1,4.28 -3.77,-2.28 z"
     id="path4"
     inkscape:export-xdpi="450"
     inkscape:export-ydpi="450"
     inkscape:connector-curvature="0" />
  <path
     d="M0 0h24v24H0z"
     fill="none"
     id="path6" />
  <path
     inkscape:export-ydpi="450"
     inkscape:export-xdpi="450"
     id="path4140"
     d="m 20.118644,29.172204 -7.19,-0.620001 -2.81,-6.62 -2.8100001,6.63 -7.18999992,0.61 5.45999992,4.73 -1.64,7.03 6.1800001,-3.73 6.18,3.73 -1.63,-7.03 z"
     inkscape:connector-curvature="0"
     style="fill:#fcff00;fill-opacity:1"
     sodipodi:nodetypes="ccccccccccc" />
  <path
     inkscape:connector-curvature="0"
     inkscape:export-ydpi="450"
     inkscape:export-xdpi="450"
     id="path4142"
     d="m 20.118644,29.172202 -7.19,-0.62 -2.81,-6.62 -2.8099999,6.63 -7.19000004,0.61 5.46000004,4.730001 -1.64,7.03 6.1799999,-3.730001 6.18,3.730001 -1.63,-7.03 5.45,-4.730001 z m -10,6.16 -3.7599999,2.270001 1,-4.28 -3.32,-2.88 4.3799999,-0.38 1.7,-4.03 1.71,4.04 4.38,0.38 -3.32,2.879999 1,4.280001 -3.77,-2.280001 z" />
</svg>
