<?xml version="1.0" encoding="UTF-8" standalone="no"?>
<svg
   xmlns:dc="http://purl.org/dc/elements/1.1/"
   xmlns:cc="http://creativecommons.org/ns#"
   xmlns:rdf="http://www.w3.org/1999/02/22-rdf-syntax-ns#"
   xmlns:svg="http://www.w3.org/2000/svg"
   xmlns="http://www.w3.org/2000/svg"
   xmlns:sodipodi="http://sodipodi.sourceforge.net/DTD/sodipodi-0.dtd"
   xmlns:inkscape="http://www.inkscape.org/namespaces/inkscape"
   version="1.1"
   x="0px"
   y="0px"
   viewBox="0 0 100 125"
   enable-background="new 0 0 100 100"
   xml:space="preserve"
   id="svg2"
   inkscape:version="0.91 r13725"
   sodipodi:docname="noun_426701_cc.svg"><metadata
     id="metadata14"><rdf:RDF><cc:Work
         rdf:about=""><dc:format>image/svg+xml</dc:format><dc:type
           rdf:resource="http://purl.org/dc/dcmitype/StillImage" /></cc:Work></rdf:RDF></metadata><defs
     id="defs12" /><sodipodi:namedview
     pagecolor="#ffffff"
     bordercolor="#666666"
     borderopacity="1"
     objecttolerance="10"
     gridtolerance="10"
     guidetolerance="10"
     inkscape:pageopacity="0"
     inkscape:pageshadow="2"
     inkscape:window-width="1253"
     inkscape:window-height="883"
     id="namedview10"
     showgrid="false"
     inkscape:zoom="1.888"
     inkscape:cx="-15.942797"
     inkscape:cy="62.5"
     inkscape:window-x="0"
     inkscape:window-y="0"
     inkscape:window-maximized="0"
     inkscape:current-layer="svg2" /><path
     d="M23.3,85.3c-0.3,0.8-0.3,1.6,0.2,2.3l3.1,5.4c0.2,0.3,0.7,0.3,0.8-0.1l8.8-21.4c2,1.7,4.5,2.7,7.2,2.7  c1.1,0,2.1-0.2,3.2-0.5l-8.7,21.2c-0.3,0.7-0.9,1.2-1.6,1.4l-9.7,2.6c-1,0.3-2.1-0.2-2.6-1.1l-5.1-8.6c-0.4-0.7-0.5-1.5-0.2-2.2  l8.1-19.7c1.1,0.5,2.3,0.9,3.6,1.1L23.3,85.3z M72.1,93.5l-6-1.6c-0.8-0.2-1.4-0.8-1.8-1.5l-6.7-16.2c-0.4,0-0.8,0.1-1.1,0.1  c-1,0-2.1-0.2-3-0.5l8.7,21.2c0.3,0.7,0.9,1.2,1.6,1.4l9.7,2.5c1,0.3,2.1-0.2,2.6-1.1l5.1-8.6c0.4-0.7,0.4-1.5,0.2-2.2l-8.1-19.6  c-1.5,0.7-3.2,1.2-4.9,1.2c-0.6,0-1.3-0.1-1.9-0.2l-0.2,0l-0.1,0.2c-0.6,1.1-1.5,2.1-2.4,3l8.9,21.5C72.8,93.2,72.4,93.6,72.1,93.5z   M17.5,37.6c-2-1.8-2-4.9,0-6.6l1.3-1.1c1.4-1.3,1.9-3.3,1.2-5l-0.7-1.6c-1-2.5,0.3-5.3,2.9-6l1.7-0.5c1.8-0.5,3.1-2.1,3.2-4  l0.1-1.7c0.1-2.4,2.1-4.2,4.4-4.2c0.3,0,0.5,0,0.8,0.1l1.7,0.3c0.3,0,0.5,0.1,0.8,0.1c1.6,0,3.1-0.9,3.9-2.3l0.8-1.5  C40.4,1.9,41.9,1,43.5,1c0.9,0,1.8,0.3,2.6,0.8l1.4,1c0.8,0.6,1.7,0.8,2.6,0.8c0.9,0,1.8-0.3,2.6-0.8l1.4-1c0.8-0.6,1.7-0.8,2.6-0.8  c1.6,0,3.1,0.8,3.9,2.3l0.8,1.5c0.8,1.4,2.3,2.3,3.9,2.3c0.3,0,0.5,0,0.8-0.1l1.7-0.3c0.3,0,0.5-0.1,0.8-0.1c2.3,0,4.3,1.8,4.4,4.2  l0.1,1.7c0.1,1.9,1.4,3.5,3.2,4l1.7,0.5c2.6,0.7,3.9,3.5,2.9,6l-0.7,1.6c-0.7,1.7-0.3,3.8,1.1,5l1.3,1.2c2,1.8,2,4.9,0,6.6l-1.3,1.1  c-1.4,1.3-1.9,3.3-1.2,5l0.7,1.6c1,2.5-0.3,5.3-2.9,6L76.1,52c-1.8,0.5-3.1,2.1-3.2,4l-0.1,1.7c-0.1,2.4-2.1,4.2-4.4,4.2  c-0.3,0-0.5,0-0.8-0.1l-1.7-0.3c-0.3,0-0.5-0.1-0.8-0.1c-1.6,0-3.1,0.9-3.9,2.3l-0.8,1.5c-0.8,1.5-2.3,2.3-3.9,2.3  c-0.9,0-1.8-0.3-2.6-0.8l-1.4-1c-0.8-0.6-1.7-0.8-2.6-0.8c-0.9,0-1.8,0.3-2.6,0.8l-1.4,1c-0.8,0.6-1.7,0.8-2.6,0.8  c-1.6,0-3.1-0.8-3.9-2.3l-0.8-1.5c-0.8-1.4-2.3-2.3-3.9-2.3c-0.3,0-0.5,0-0.8,0.1l-1.7,0.3c-0.3,0-0.5,0.1-0.8,0.1  c-2.3,0-4.3-1.8-4.4-4.2L27,55.9c-0.1-1.9-1.4-3.5-3.2-4l-1.7-0.5c-2.6-0.7-3.9-3.5-2.9-6l0.7-1.6c0.7-1.7,0.3-3.8-1.1-5L17.5,37.6z   M35.9,35.3l5.2,5.2l5.4,5.4l5.4-5.4l12.3-12.3l-5.4-5.4L46.4,35.1l-5.2-5.2L35.9,35.3z"
     id="path4"
     inkscape:export-xdpi="132.26216"
     inkscape:export-ydpi="132.26216" /><text
     x="0"
     y="115"
     fill="#000000"
     font-size="5px"
     font-weight="bold"
     font-family="'Helvetica Neue', Helvetica, Arial-Unicode, Arial, Sans-serif"
     id="text6">Created by Gregor Črešnar</text>
<text
     x="0"
     y="120"
     fill="#000000"
     font-size="5px"
     font-weight="bold"
     font-family="'Helvetica Neue', Helvetica, Arial-Unicode, Arial, Sans-serif"
     id="text8">from the Noun Project</text>
</svg>